<svg width="700" height="128" viewBox="0 0 700 128" fill="none" xmlns="http://www.w3.org/2000/svg">
<g clip-path="url(#clip0_98_125)">
<path d="M700 25.5999L676.667 31.9999C653.333 38.3999 606.667 51.1999 560 55.4579C513.333 59.8203 466.667 55.3795 420 59.7419C373.333 63.9999 326.667 76.7999 280 72.5419C233.333 68.1795 186.667 47.0203 140 51.1999C93.3333 55.3795 46.6667 85.4203 8.34465e-06 89.5999C-46.6667 93.7795 -93.3333 72.6203 -140 74.6579C-186.667 76.7999 -233.333 102.4 -280 110.942C-326.667 119.379 -373.333 111.02 -420 91.7419C-466.667 72.6203 -513.333 42.5795 -560 38.3999C-606.667 34.2203 -653.333 55.3795 -700 74.6579C-746.667 93.7795 -793.333 111.02 -840 117.342C-886.667 123.82 -933.333 119.379 -980 100.258C-1026.67 80.9795 -1073.33 47.0203 -1120 49.0579C-1166.67 51.1999 -1213.33 89.5999 -1260 93.8579C-1306.67 98.2203 -1353.33 68.1795 -1400 59.7419C-1446.67 51.1999 -1493.33 63.9999 -1540 70.3999C-1586.67 76.7999 -1633.33 76.7999 -1680 66.1419C-1726.67 55.3795 -1773.33 34.2203 -1820 36.2579C-1866.67 38.3999 -1913.33 63.9999 -1960 70.3999C-2006.67 76.7999 -2053.33 63.9999 -2100 66.1419C-2146.67 68.1795 -2193.33 85.4203 -2240 78.9419C-2286.67 72.6203 -2333.33 42.5795 -2380 44.7999C-2426.67 47.0203 -2473.33 80.9795 -2520 93.8579C-2566.67 106.579 -2613.33 98.2203 -2636.67 93.8579L-2660 89.5999V-9.50129e-05H-2636.67C-2613.33 -9.50129e-05 -2566.67 -9.50129e-05 -2520 -9.50129e-05C-2473.33 -9.50129e-05 -2426.67 -9.50129e-05 -2380 -9.50129e-05C-2333.33 -9.50129e-05 -2286.67 -9.50129e-05 -2240 -9.50129e-05C-2193.33 -9.50129e-05 -2146.67 -9.50129e-05 -2100 -9.50129e-05C-2053.33 -9.50129e-05 -2006.67 -9.50129e-05 -1960 -9.50129e-05C-1913.33 -9.50129e-05 -1866.67 -9.50129e-05 -1820 -9.50129e-05C-1773.33 -9.50129e-05 -1726.67 -9.50129e-05 -1680 -9.50129e-05C-1633.33 -9.50129e-05 -1586.67 -9.50129e-05 -1540 -9.50129e-05C-1493.33 -9.50129e-05 -1446.67 -9.50129e-05 -1400 -9.50129e-05C-1353.33 -9.50129e-05 -1306.67 -9.50129e-05 -1260 -9.50129e-05C-1213.33 -9.50129e-05 -1166.67 -9.50129e-05 -1120 -9.50129e-05C-1073.33 -9.50129e-05 -1026.67 -9.50129e-05 -980 -9.50129e-05C-933.333 -9.50129e-05 -886.667 -9.50129e-05 -840 -9.50129e-05C-793.333 -9.50129e-05 -746.667 -9.50129e-05 -700 -9.50129e-05C-653.333 -9.50129e-05 -606.667 -9.50129e-05 -560 -9.50129e-05C-513.333 -9.50129e-05 -466.667 -9.50129e-05 -420 -9.50129e-05C-373.333 -9.50129e-05 -326.667 -9.50129e-05 -280 -9.50129e-05C-233.333 -9.50129e-05 -186.667 -9.50129e-05 -140 -9.50129e-05C-93.3333 -9.50129e-05 -46.6667 -9.50129e-05 8.34465e-06 -9.50129e-05C46.6667 -9.50129e-05 93.3333 -9.50129e-05 140 -9.50129e-05C186.667 -9.50129e-05 233.333 -9.50129e-05 280 -9.50129e-05C326.667 -9.50129e-05 373.333 -9.50129e-05 420 -9.50129e-05C466.667 -9.50129e-05 513.333 -9.50129e-05 560 -9.50129e-05C606.667 -9.50129e-05 653.333 -9.50129e-05 676.667 -9.50129e-05L700 -9.50129e-05V25.5999Z" fill="url(#paint0_linear_98_125)"/>
<path opacity="0.9" d="M700 51.1999L676.667 61.8579C653.333 72.6203 606.667 93.7795 560 95.9999C513.333 98.2203 466.667 80.9795 420 72.5419C373.333 63.9999 326.667 63.9999 280 68.2579C233.333 72.6203 186.667 80.9795 140 76.7999C93.3333 72.6203 46.6667 55.3795 8.34465e-06 44.7999C-46.6667 34.2203 -93.3333 29.7795 -140 31.9999C-186.667 34.2203 -233.333 42.5795 -280 42.6578C-326.667 42.5795 -373.333 34.2203 -420 38.3999C-466.667 42.5795 -513.333 59.8203 -560 59.7419C-606.667 59.8203 -653.333 42.5795 -700 44.7999C-746.667 47.0203 -793.333 68.1795 -840 78.9419C-886.667 89.5999 -933.333 89.5999 -980 93.8579C-1026.67 98.2203 -1073.33 106.579 -1120 100.258C-1166.67 93.7795 -1213.33 72.6203 -1260 72.5419C-1306.67 72.6203 -1353.33 93.7795 -1400 100.258C-1446.67 106.579 -1493.33 98.2203 -1540 93.8579C-1586.67 89.5999 -1633.33 89.5999 -1680 85.3419C-1726.67 80.9795 -1773.33 72.6203 -1820 76.7999C-1866.67 80.9795 -1913.33 98.2203 -1960 108.8C-2006.67 119.379 -2053.33 123.82 -2100 110.942C-2146.67 98.2203 -2193.33 68.1795 -2240 49.0578C-2286.67 29.7795 -2333.33 21.4203 -2380 36.2578C-2426.67 51.1999 -2473.33 89.5999 -2520 100.258C-2566.67 111.02 -2613.33 93.7795 -2636.67 85.3419L-2660 76.7999V-0.000117525H-2636.67C-2613.33 -0.000117525 -2566.67 -0.000117525 -2520 -0.000117525C-2473.33 -0.000117525 -2426.67 -0.000117525 -2380 -0.000117525C-2333.33 -0.000117525 -2286.67 -0.000117525 -2240 -0.000117525C-2193.33 -0.000117525 -2146.67 -0.000117525 -2100 -0.000117525C-2053.33 -0.000117525 -2006.67 -0.000117525 -1960 -0.000117525C-1913.33 -0.000117525 -1866.67 -0.000117525 -1820 -0.000117525C-1773.33 -0.000117525 -1726.67 -0.000117525 -1680 -0.000117525C-1633.33 -0.000117525 -1586.67 -0.000117525 -1540 -0.000117525C-1493.33 -0.000117525 -1446.67 -0.000117525 -1400 -0.000117525C-1353.33 -0.000117525 -1306.67 -0.000117525 -1260 -0.000117525C-1213.33 -0.000117525 -1166.67 -0.000117525 -1120 -0.000117525C-1073.33 -0.000117525 -1026.67 -0.000117525 -980 -0.000117525C-933.333 -0.000117525 -886.667 -0.000117525 -840 -0.000117525C-793.333 -0.000117525 -746.667 -0.000117525 -700 -0.000117525C-653.333 -0.000117525 -606.667 -0.000117525 -560 -0.000117525C-513.333 -0.000117525 -466.667 -0.000117525 -420 -0.000117525C-373.333 -0.000117525 -326.667 -0.000117525 -280 -0.000117525C-233.333 -0.000117525 -186.667 -0.000117525 -140 -0.000117525C-93.3333 -0.000117525 -46.6667 -0.000117525 8.34465e-06 -0.000117525C46.6667 -0.000117525 93.3333 -0.000117525 140 -0.000117525C186.667 -0.000117525 233.333 -0.000117525 280 -0.000117525C326.667 -0.000117525 373.333 -0.000117525 420 -0.000117525C466.667 -0.000117525 513.333 -0.000117525 560 -0.000117525C606.667 -0.000117525 653.333 -0.000117525 676.667 -0.000117525L700 -0.000117525V51.1999Z" fill="url(#paint1_linear_98_125)"/>
<path opacity="0.8" d="M700 38.4L676.667 53.342C653.333 68.1796 606.667 98.2204 560 93.858C513.333 89.6 466.667 51.2 420 34.142C373.333 16.9796 326.667 21.4204 280 25.6C233.333 29.7796 186.667 34.2204 140 51.2C93.3333 68.1796 46.6667 98.2204 8.34465e-06 102.4C-46.6667 106.58 -93.3333 85.4204 -140 70.4C-186.667 55.3796 -233.333 47.0204 -280 49.058C-326.667 51.2 -373.333 64 -420 59.7421C-466.667 55.3796 -513.333 34.2204 -560 38.4C-606.667 42.5796 -653.333 72.6204 -700 89.6C-746.667 106.58 -793.333 111.02 -840 104.542C-886.667 98.2204 -933.333 80.9796 -980 78.942C-1026.67 76.8 -1073.33 89.6 -1120 93.858C-1166.67 98.2204 -1213.33 93.7796 -1260 89.6C-1306.67 85.4204 -1353.33 80.9796 -1400 83.2C-1446.67 85.4204 -1493.33 93.7796 -1540 85.342C-1586.67 76.8 -1633.33 51.2 -1680 46.942C-1726.67 42.5796 -1773.33 59.8204 -1820 72.542C-1866.67 85.4204 -1913.33 93.7796 -1960 102.4C-2006.67 111.02 -2053.33 119.38 -2100 123.742C-2146.67 128 -2193.33 128 -2240 115.2C-2286.67 102.4 -2333.33 76.8 -2380 76.8C-2426.67 76.8 -2473.33 102.4 -2520 102.4C-2566.67 102.4 -2613.33 76.8 -2636.67 64L-2660 51.2V3.57109e-06H-2636.67C-2613.33 3.57109e-06 -2566.67 3.57109e-06 -2520 3.57109e-06C-2473.33 3.57109e-06 -2426.67 3.57109e-06 -2380 3.57109e-06C-2333.33 3.57109e-06 -2286.67 3.57109e-06 -2240 3.57109e-06C-2193.33 3.57109e-06 -2146.67 3.57109e-06 -2100 3.57109e-06C-2053.33 3.57109e-06 -2006.67 3.57109e-06 -1960 3.57109e-06C-1913.33 3.57109e-06 -1866.67 3.57109e-06 -1820 3.57109e-06C-1773.33 3.57109e-06 -1726.67 3.57109e-06 -1680 3.57109e-06C-1633.33 3.57109e-06 -1586.67 3.57109e-06 -1540 3.57109e-06C-1493.33 3.57109e-06 -1446.67 3.57109e-06 -1400 3.57109e-06C-1353.33 3.57109e-06 -1306.67 3.57109e-06 -1260 3.57109e-06C-1213.33 3.57109e-06 -1166.67 3.57109e-06 -1120 3.57109e-06C-1073.33 3.57109e-06 -1026.67 3.57109e-06 -980 3.57109e-06C-933.333 3.57109e-06 -886.667 3.57109e-06 -840 3.57109e-06C-793.333 3.57109e-06 -746.667 3.57109e-06 -700 3.57109e-06C-653.333 3.57109e-06 -606.667 3.57109e-06 -560 3.57109e-06C-513.333 3.57109e-06 -466.667 3.57109e-06 -420 3.57109e-06C-373.333 3.57109e-06 -326.667 3.57109e-06 -280 3.57109e-06C-233.333 3.57109e-06 -186.667 3.57109e-06 -140 3.57109e-06C-93.3333 3.57109e-06 -46.6667 3.57109e-06 8.34465e-06 3.57109e-06C46.6667 3.57109e-06 93.3333 3.57109e-06 140 3.57109e-06C186.667 3.57109e-06 233.333 3.57109e-06 280 3.57109e-06C326.667 3.57109e-06 373.333 3.57109e-06 420 3.57109e-06C466.667 3.57109e-06 513.333 3.57109e-06 560 3.57109e-06C606.667 3.57109e-06 653.333 3.57109e-06 676.667 3.57109e-06L700 3.57109e-06V38.4Z" fill="url(#paint2_linear_98_125)"/>
</g>
<defs>
<linearGradient id="paint0_linear_98_125" x1="700" y1="-9.9651e-05" x2="700" y2="120.133" gradientUnits="userSpaceOnUse">
<stop/>
<stop offset="1" stop-color="white"/>
</linearGradient>
<linearGradient id="paint1_linear_98_125" x1="700" y1="-0.000114987" x2="700" y2="118.837" gradientUnits="userSpaceOnUse">
<stop/>
<stop offset="1"/>
</linearGradient>
<linearGradient id="paint2_linear_98_125" x1="700" y1="-1.02081e-07" x2="700" y2="126.287" gradientUnits="userSpaceOnUse">
<stop stop-color="#002ABD"/>
<stop offset="1" stop-color="#002ABD"/>
</linearGradient>
<clipPath id="clip0_98_125">
<rect width="700" height="128" fill="white" transform="matrix(-1 0 0 -1 700 128)"/>
</clipPath>
</defs>
</svg>
