<svg width="57" height="57" viewBox="0 0 57 57" fill="none" xmlns="http://www.w3.org/2000/svg">
<path d="M40.0001 16.3L32.7001 7.4L30.7001 4.1L32.3001 0L22.6001 8.2L29.9001 17L31.9001 20.3L30.3001 24.4L40.0001 16.3Z" fill="#00A3E1"/>
<path d="M25.9001 12.3L14.5001 12.5L10.7001 12L8.6001 8.2L8.90009 20.9L20.3001 20.7L24.1001 21.2L26.2001 25L25.9001 12.3Z" fill="#00A3E1"/>
<path d="M14 20.9L7.10001 30L4.39999 32.8L0 32.1L10.1 39.7L17 30.6L19.7 27.9L24.1 28.6L14 20.9Z" fill="#00A3E1"/>
<path d="M13.3002 35.6L16.0002 46.7L16.5002 50.5L13.2002 53.5L25.4002 50.3L22.6002 39.2L22.1002 35.4L25.4002 32.5L13.3002 35.6Z" fill="#00A3E1"/>
<path d="M24.2998 45.3L34.5998 50.1L37.8998 52.2L38.1998 56.6L43.2998 45L32.8998 40.2L29.5998 38.2L29.2998 33.8L24.2998 45.3Z" fill="#00A3E1"/>
<path d="M38.6998 42.7L48.8998 37.6L52.4998 36.3L56.0998 38.8L50.2998 27.6L40.0998 32.7L36.3998 34L32.7998 31.5L38.6998 42.7Z" fill="#00A3E1"/>
<path d="M45.6998 29.8L47.9998 18.6L49.2998 14.9L53.4998 13.7L41.0998 11.2L38.7998 22.4L37.4998 26.1L33.2998 27.3L45.6998 29.8Z" fill="#00A3E1"/>
</svg>
