<svg width="148" height="45" viewBox="0 0 148 45" fill="none" xmlns="http://www.w3.org/2000/svg">
<path d="M31.6578 12.9005L25.8803 5.85668L24.2974 3.24492L25.5637 0L17.8867 6.48984L23.6642 13.4545L25.2471 16.0663L23.9808 19.3112L31.6578 12.9005Z" fill="#00A3E1"/>
<path d="M20.4986 9.73476L11.4762 9.89305L8.46865 9.49732L6.80664 6.48984L7.04406 16.5412L16.0665 16.3829L19.074 16.7786L20.736 19.7861L20.4986 9.73476Z" fill="#00A3E1"/>
<path d="M11.0802 16.5412L5.61926 23.7433L3.48235 25.9594L0 25.4053L7.99359 31.4203L13.4545 24.2182L15.5914 22.0813L19.0738 22.6353L11.0802 16.5412Z" fill="#00A3E1"/>
<path d="M10.5264 28.1754L12.6633 36.9604L13.059 39.9679L10.4473 42.3422L20.1029 39.8096L17.8869 31.0246L17.4911 28.0171L20.1029 25.7219L10.5264 28.1754Z" fill="#00A3E1"/>
<path d="M19.2319 35.8524L27.3838 39.6513L29.9956 41.3134L30.233 44.7957L34.2694 35.615L26.0384 31.8161L23.4266 30.2332L23.1892 26.7508L19.2319 35.8524Z" fill="#00A3E1"/>
<path d="M30.6285 33.7947L38.7012 29.7583L41.5504 28.7294L44.3996 30.708L39.8093 21.8438L31.7365 25.8802L28.8082 26.9091L25.959 24.9305L30.6285 33.7947Z" fill="#00A3E1"/>
<path d="M36.1689 23.585L37.9892 14.7209L39.0181 11.7925L42.3422 10.8428L32.5283 8.86417L30.7079 17.7283L29.6791 20.6567L26.355 21.6064L36.1689 23.585Z" fill="#00A3E1"/>
<path d="M46.7208 33.224C46.3368 33.224 46.0275 33.1387 45.7928 32.968C45.5795 32.7973 45.4515 32.5627 45.4088 32.264C45.3661 31.9653 45.4301 31.6347 45.6008 31.272L54.3368 11.496C54.5288 11.048 54.7741 10.728 55.0728 10.536C55.3715 10.3227 55.7021 10.216 56.0648 10.216C56.4275 10.216 56.7475 10.3227 57.0248 10.536C57.3235 10.728 57.5795 11.048 57.7928 11.496L66.5288 31.272C66.6995 31.6347 66.7635 31.976 66.7208 32.296C66.6995 32.5947 66.5821 32.8293 66.3688 33C66.1555 33.1493 65.8568 33.224 65.4728 33.224C65.0461 33.224 64.7048 33.1173 64.4488 32.904C64.1928 32.6693 63.9688 32.3387 63.7768 31.912L61.5048 26.6L62.8808 27.368H49.1848L50.5608 26.6L48.2888 31.912C48.0968 32.3813 47.8835 32.7227 47.6488 32.936C47.4141 33.128 47.1048 33.224 46.7208 33.224ZM56.0008 13.8L51.0088 25.608L50.2408 24.936H61.8248L61.0888 25.608L56.0648 13.8H56.0008ZM75.2828 33.288C74.3228 33.288 73.3521 33.1813 72.3708 32.968C71.4108 32.7333 70.5041 32.3387 69.6508 31.784C69.4161 31.6347 69.2455 31.4533 69.1388 31.24C69.0535 31.0053 69.0215 30.7813 69.0428 30.568C69.0855 30.3333 69.1815 30.1307 69.3308 29.96C69.4801 29.7893 69.6615 29.6933 69.8748 29.672C70.1095 29.6293 70.3548 29.6827 70.6108 29.832C71.4428 30.3013 72.2428 30.632 73.0108 30.824C73.8001 31.016 74.5788 31.112 75.3468 31.112C76.5201 31.112 77.4055 30.8987 78.0028 30.472C78.6001 30.0453 78.8988 29.48 78.8988 28.776C78.8988 28.1787 78.6961 27.72 78.2908 27.4C77.9068 27.0587 77.2988 26.8027 76.4668 26.632L73.4908 26.024C72.1681 25.7253 71.1655 25.2347 70.4828 24.552C69.8215 23.848 69.4908 22.952 69.4908 21.864C69.4908 20.904 69.7468 20.072 70.2588 19.368C70.7921 18.6427 71.5281 18.088 72.4668 17.704C73.4055 17.32 74.4828 17.128 75.6988 17.128C76.6375 17.128 77.5228 17.256 78.3548 17.512C79.2081 17.7467 79.9761 18.1093 80.6588 18.6C80.9148 18.7493 81.0748 18.9413 81.1388 19.176C81.2241 19.3893 81.2348 19.6133 81.1708 19.848C81.1281 20.0613 81.0321 20.2427 80.8828 20.392C80.7335 20.5413 80.5415 20.6373 80.3068 20.68C80.0721 20.7013 79.8161 20.6373 79.5388 20.488C78.9201 20.0613 78.2801 19.7627 77.6188 19.592C76.9788 19.4 76.3388 19.304 75.6988 19.304C74.5468 19.304 73.6721 19.528 73.0748 19.976C72.4988 20.424 72.2108 21.0107 72.2108 21.736C72.2108 22.2907 72.3815 22.7493 72.7228 23.112C73.0855 23.4747 73.6508 23.7413 74.4188 23.912L77.3948 24.52C78.7815 24.8187 79.8268 25.2987 80.5308 25.96C81.2348 26.6 81.5868 27.4747 81.5868 28.584C81.5868 30.0347 81.0108 31.1867 79.8588 32.04C78.7281 32.872 77.2028 33.288 75.2828 33.288ZM91.6833 33.288C90.4246 33.288 89.3686 33.064 88.5153 32.616C87.6833 32.168 87.054 31.5173 86.6273 30.664C86.222 29.8107 86.0193 28.7653 86.0193 27.528V19.656H83.9713C83.5873 19.656 83.2886 19.56 83.0753 19.368C82.862 19.1547 82.7553 18.8773 82.7553 18.536C82.7553 18.1733 82.862 17.896 83.0753 17.704C83.2886 17.512 83.5873 17.416 83.9713 17.416H86.0193V13.928C86.0193 13.4373 86.1473 13.0747 86.4033 12.84C86.6593 12.584 87.022 12.456 87.4913 12.456C87.9606 12.456 88.3126 12.584 88.5473 12.84C88.8033 13.0747 88.9313 13.4373 88.9313 13.928V17.416H92.8033C93.2086 17.416 93.518 17.512 93.7313 17.704C93.9446 17.896 94.0513 18.1733 94.0513 18.536C94.0513 18.8773 93.9446 19.1547 93.7313 19.368C93.518 19.56 93.2086 19.656 92.8033 19.656H88.9313V27.272C88.9313 28.4453 89.1766 29.3307 89.6673 29.928C90.158 30.5253 90.9686 30.824 92.0993 30.824C92.5046 30.824 92.846 30.792 93.1233 30.728C93.4006 30.6427 93.646 30.6 93.8593 30.6C94.0513 30.5787 94.2113 30.6427 94.3393 30.792C94.4886 30.9413 94.5633 31.2187 94.5633 31.624C94.5633 31.9227 94.51 32.2 94.4033 32.456C94.318 32.6907 94.1366 32.8507 93.8593 32.936C93.6033 33.0213 93.262 33.096 92.8353 33.16C92.4086 33.2453 92.0246 33.288 91.6833 33.288ZM103.732 33.288C102.046 33.288 100.596 32.968 99.3798 32.328C98.1851 31.6667 97.2571 30.7387 96.5958 29.544C95.9345 28.328 95.6038 26.8987 95.6038 25.256C95.6038 23.6347 95.9238 22.216 96.5638 21C97.2251 19.784 98.1211 18.8347 99.2518 18.152C100.404 17.4693 101.716 17.128 103.188 17.128C104.233 17.128 105.172 17.3093 106.004 17.672C106.857 18.0133 107.582 18.5147 108.18 19.176C108.777 19.8373 109.225 20.648 109.524 21.608C109.844 22.5467 110.004 23.6133 110.004 24.808C110.004 25.1493 109.897 25.416 109.684 25.608C109.492 25.7787 109.204 25.864 108.82 25.864H97.8758V24.008H108.084L107.54 24.456C107.54 23.3467 107.369 22.408 107.028 21.64C106.708 20.8507 106.228 20.2533 105.588 19.848C104.969 19.4427 104.19 19.24 103.252 19.24C102.228 19.24 101.353 19.4853 100.628 19.976C99.9025 20.4453 99.3478 21.1173 98.9638 21.992C98.5798 22.8453 98.3878 23.8373 98.3878 24.968V25.16C98.3878 27.08 98.8465 28.5307 99.7638 29.512C100.681 30.4933 102.004 30.984 103.732 30.984C104.414 30.984 105.108 30.8987 105.812 30.728C106.537 30.5573 107.23 30.248 107.892 29.8C108.212 29.608 108.5 29.5227 108.756 29.544C109.033 29.544 109.257 29.6293 109.428 29.8C109.598 29.9493 109.705 30.1413 109.748 30.376C109.79 30.5893 109.758 30.824 109.652 31.08C109.545 31.336 109.342 31.56 109.044 31.752C108.34 32.2427 107.497 32.6267 106.516 32.904C105.556 33.16 104.628 33.288 103.732 33.288ZM115.13 33.224C114.639 33.224 114.266 33.096 114.01 32.84C113.754 32.584 113.626 32.2107 113.626 31.72V18.664C113.626 18.1733 113.754 17.8107 114.01 17.576C114.266 17.32 114.618 17.192 115.066 17.192C115.514 17.192 115.855 17.32 116.09 17.576C116.346 17.8107 116.474 18.1733 116.474 18.664V21.128H116.154C116.495 19.848 117.135 18.8773 118.074 18.216C119.012 17.5547 120.196 17.1813 121.626 17.096C121.967 17.0747 122.244 17.16 122.458 17.352C122.671 17.5227 122.788 17.8213 122.81 18.248C122.831 18.6533 122.735 18.984 122.522 19.24C122.308 19.4747 121.978 19.6133 121.53 19.656L120.954 19.688C119.546 19.8373 118.458 20.296 117.69 21.064C116.943 21.832 116.57 22.888 116.57 24.232V31.72C116.57 32.2107 116.442 32.584 116.186 32.84C115.951 33.096 115.599 33.224 115.13 33.224ZM126.753 33.16C126.305 33.16 125.953 33.0213 125.697 32.744C125.441 32.4667 125.313 32.0827 125.313 31.592V18.824C125.313 18.312 125.441 17.928 125.697 17.672C125.953 17.3947 126.305 17.256 126.753 17.256C127.222 17.256 127.585 17.3947 127.841 17.672C128.097 17.928 128.225 18.312 128.225 18.824V31.592C128.225 32.0827 128.097 32.4667 127.841 32.744C127.606 33.0213 127.244 33.16 126.753 33.16ZM126.753 13.8C126.177 13.8 125.718 13.6507 125.377 13.352C125.057 13.032 124.897 12.616 124.897 12.104C124.897 11.5493 125.057 11.1333 125.377 10.856C125.718 10.5573 126.177 10.408 126.753 10.408C127.372 10.408 127.83 10.5573 128.129 10.856C128.449 11.1333 128.609 11.5493 128.609 12.104C128.609 12.616 128.449 13.032 128.129 13.352C127.83 13.6507 127.372 13.8 126.753 13.8ZM137.867 33.288C136.8 33.288 135.829 33.0747 134.955 32.648C134.101 32.2213 133.429 31.6453 132.939 30.92C132.469 30.1947 132.235 29.384 132.235 28.488C132.235 27.336 132.523 26.4293 133.099 25.768C133.675 25.1067 134.645 24.6373 136.011 24.36C137.376 24.0613 139.211 23.912 141.515 23.912H143.019V25.768H141.579C139.936 25.768 138.635 25.8427 137.675 25.992C136.736 26.1413 136.075 26.408 135.691 26.792C135.307 27.1547 135.115 27.6667 135.115 28.328C135.115 29.16 135.403 29.8427 135.979 30.376C136.576 30.9093 137.387 31.176 138.411 31.176C139.221 31.176 139.936 30.984 140.555 30.6C141.173 30.1947 141.664 29.6613 142.027 29C142.389 28.3173 142.571 27.5387 142.571 26.664V22.984C142.571 21.7253 142.315 20.8187 141.803 20.264C141.291 19.688 140.427 19.4 139.211 19.4C138.507 19.4 137.781 19.496 137.035 19.688C136.288 19.88 135.509 20.1787 134.699 20.584C134.379 20.7333 134.101 20.7867 133.867 20.744C133.632 20.68 133.44 20.552 133.291 20.36C133.163 20.1467 133.088 19.9227 133.067 19.688C133.067 19.432 133.12 19.1867 133.227 18.952C133.355 18.7173 133.568 18.5467 133.867 18.44C134.805 17.9707 135.733 17.64 136.651 17.448C137.589 17.2347 138.464 17.128 139.275 17.128C140.661 17.128 141.803 17.352 142.699 17.8C143.595 18.2267 144.267 18.8987 144.715 19.816C145.163 20.712 145.387 21.864 145.387 23.272V31.72C145.387 32.2107 145.269 32.584 145.035 32.84C144.8 33.096 144.459 33.224 144.011 33.224C143.584 33.224 143.243 33.096 142.987 32.84C142.752 32.584 142.635 32.2107 142.635 31.72V29.448H142.923C142.752 30.2373 142.432 30.92 141.963 31.496C141.493 32.072 140.907 32.52 140.203 32.84C139.52 33.1387 138.741 33.288 137.867 33.288Z" fill="#00A3E1"/>
</svg>
