<svg width="1441" height="391" viewBox="0 0 1441 391" fill="none" xmlns="http://www.w3.org/2000/svg">
<g clip-path="url(#clip0_98_129)">
<rect width="1441" height="391" fill="white"/>
<g clip-path="url(#clip1_98_129)">
<path d="M0 293.709L48 269.478C96 245.246 192 196.782 288 180.661C384 164.143 480 180.957 576 164.44C672 148.318 768 99.8547 864 115.976C960 132.494 1056 212.607 1152 196.782C1248 180.957 1344 67.2159 1440 51.391C1536 35.5661 1632 115.68 1728 107.965C1824 99.8547 1920 2.92732 2016 -29.4148C2112 -61.3612 2208 -29.7115 2304 43.2808C2400 115.68 2496 229.421 2592 245.246C2688 261.071 2784 180.957 2880 107.965C2976 35.5661 3072 -29.7115 3168 -53.6466C3264 -78.1752 3360 -61.3612 3456 11.0376C3552 84.0298 3648 212.607 3744 204.892C3840 196.782 3936 51.391 4032 35.2694C4128 18.7522 4224 132.494 4320 164.44C4416 196.782 4512 148.318 4608 124.087C4704 99.8547 4800 99.8547 4896 140.208C4992 180.957 5088 261.071 5184 253.356C5280 245.246 5376 148.318 5472 124.087C5568 99.8547 5664 148.318 5760 140.208C5856 132.494 5952 67.2159 6048 91.7445C6144 115.68 6240 229.421 6336 221.014C6432 212.607 6528 84.0298 6624 35.2694C6720 -12.8976 6816 18.7522 6864 35.2694L6912 51.391V390.637H6864C6816 390.637 6720 390.637 6624 390.637C6528 390.637 6432 390.637 6336 390.637C6240 390.637 6144 390.637 6048 390.637C5952 390.637 5856 390.637 5760 390.637C5664 390.637 5568 390.637 5472 390.637C5376 390.637 5280 390.637 5184 390.637C5088 390.637 4992 390.637 4896 390.637C4800 390.637 4704 390.637 4608 390.637C4512 390.637 4416 390.637 4320 390.637C4224 390.637 4128 390.637 4032 390.637C3936 390.637 3840 390.637 3744 390.637C3648 390.637 3552 390.637 3456 390.637C3360 390.637 3264 390.637 3168 390.637C3072 390.637 2976 390.637 2880 390.637C2784 390.637 2688 390.637 2592 390.637C2496 390.637 2400 390.637 2304 390.637C2208 390.637 2112 390.637 2016 390.637C1920 390.637 1824 390.637 1728 390.637C1632 390.637 1536 390.637 1440 390.637C1344 390.637 1248 390.637 1152 390.637C1056 390.637 960 390.637 864 390.637C768 390.637 672 390.637 576 390.637C480 390.637 384 390.637 288 390.637C192 390.637 96 390.637 48 390.637H0L0 293.709Z" fill="url(#paint0_linear_98_129)"/>
<path opacity="0.9" d="M0 196.782L48 156.429C96 115.68 192 35.5661 288 27.1592C384 18.7522 480 84.0298 576 115.976C672 148.318 768 148.318 864 132.197C960 115.68 1056 84.0298 1152 99.8547C1248 115.68 1344 180.957 1440 221.014C1536 261.071 1632 277.885 1728 269.478C1824 261.071 1920 229.421 2016 229.124C2112 229.421 2208 261.071 2304 245.246C2400 229.421 2496 164.143 2592 164.44C2688 164.143 2784 229.421 2880 221.014C2976 212.607 3072 132.494 3168 91.7445C3264 51.391 3360 51.391 3456 35.2694C3552 18.7522 3648 -12.8976 3744 11.0376C3840 35.5661 3936 115.68 4032 115.976C4128 115.68 4224 35.5661 4320 11.0376C4416 -12.8976 4512 18.7522 4608 35.2694C4704 51.391 4800 51.391 4896 67.5126C4992 84.0298 5088 115.68 5184 99.8547C5280 84.0298 5376 18.7522 5472 -21.3045C5568 -61.3612 5664 -78.1752 5760 -29.4148C5856 18.7522 5952 132.494 6048 204.892C6144 277.885 6240 309.534 6336 253.356C6432 196.782 6528 51.391 6624 11.0376C6720 -29.7115 6816 35.5661 6864 67.5126L6912 99.8547V390.637H6864C6816 390.637 6720 390.637 6624 390.637C6528 390.637 6432 390.637 6336 390.637C6240 390.637 6144 390.637 6048 390.637C5952 390.637 5856 390.637 5760 390.637C5664 390.637 5568 390.637 5472 390.637C5376 390.637 5280 390.637 5184 390.637C5088 390.637 4992 390.637 4896 390.637C4800 390.637 4704 390.637 4608 390.637C4512 390.637 4416 390.637 4320 390.637C4224 390.637 4128 390.637 4032 390.637C3936 390.637 3840 390.637 3744 390.637C3648 390.637 3552 390.637 3456 390.637C3360 390.637 3264 390.637 3168 390.637C3072 390.637 2976 390.637 2880 390.637C2784 390.637 2688 390.637 2592 390.637C2496 390.637 2400 390.637 2304 390.637C2208 390.637 2112 390.637 2016 390.637C1920 390.637 1824 390.637 1728 390.637C1632 390.637 1536 390.637 1440 390.637C1344 390.637 1248 390.637 1152 390.637C1056 390.637 960 390.637 864 390.637C768 390.637 672 390.637 576 390.637C480 390.637 384 390.637 288 390.637C192 390.637 96 390.637 48 390.637H0L0 196.782Z" fill="url(#paint1_linear_98_129)"/>
<path opacity="0.8" d="M0 245.246L48 188.672C96 132.494 192 18.7524 288 35.2696C384 51.3912 480 196.782 576 261.368C672 326.348 768 309.535 864 293.71C960 277.885 1056 261.071 1152 196.782C1248 132.494 1344 18.7524 1440 2.9275C1536 -12.8974 1632 67.2161 1728 124.087C1824 180.957 1920 212.607 2016 204.893C2112 196.782 2208 148.319 2304 164.44C2400 180.957 2496 261.071 2592 245.246C2688 229.421 2784 115.68 2880 51.3912C2976 -12.8974 3072 -29.7113 3168 -5.18275C3264 18.7524 3360 84.03 3456 91.7446C3552 99.8549 3648 51.3912 3744 35.2696C3840 18.7524 3936 35.5663 4032 51.3912C4128 67.2161 4224 84.03 4320 75.623C4416 67.2161 4512 35.5663 4608 67.5128C4704 99.8549 4800 196.782 4896 212.904C4992 229.421 5088 164.143 5184 115.976C5280 67.2161 5376 35.5663 5472 2.9275C5568 -29.7113 5664 -61.3611 5760 -77.8783C5856 -93.9999 5952 -93.9999 6048 -45.5362C6144 2.9275 6240 99.8549 6336 99.8549C6432 99.8549 6528 2.9275 6624 2.9275C6720 2.9275 6816 99.8549 6864 148.319L6912 196.782V390.637H6864C6816 390.637 6720 390.637 6624 390.637C6528 390.637 6432 390.637 6336 390.637C6240 390.637 6144 390.637 6048 390.637C5952 390.637 5856 390.637 5760 390.637C5664 390.637 5568 390.637 5472 390.637C5376 390.637 5280 390.637 5184 390.637C5088 390.637 4992 390.637 4896 390.637C4800 390.637 4704 390.637 4608 390.637C4512 390.637 4416 390.637 4320 390.637C4224 390.637 4128 390.637 4032 390.637C3936 390.637 3840 390.637 3744 390.637C3648 390.637 3552 390.637 3456 390.637C3360 390.637 3264 390.637 3168 390.637C3072 390.637 2976 390.637 2880 390.637C2784 390.637 2688 390.637 2592 390.637C2496 390.637 2400 390.637 2304 390.637C2208 390.637 2112 390.637 2016 390.637C1920 390.637 1824 390.637 1728 390.637C1632 390.637 1536 390.637 1440 390.637C1344 390.637 1248 390.637 1152 390.637C1056 390.637 960 390.637 864 390.637C768 390.637 672 390.637 576 390.637C480 390.637 384 390.637 288 390.637C192 390.637 96 390.637 48 390.637H0L0 245.246Z" fill="url(#paint2_linear_98_129)"/>
</g>
</g>
<defs>
<linearGradient id="paint0_linear_98_129" x1="0" y1="390.637" x2="0" y2="-64.2153" gradientUnits="userSpaceOnUse">
<stop/>
<stop offset="1" stop-color="white"/>
</linearGradient>
<linearGradient id="paint1_linear_98_129" x1="0" y1="390.637" x2="0" y2="-59.3079" gradientUnits="userSpaceOnUse">
<stop/>
<stop offset="1"/>
</linearGradient>
<linearGradient id="paint2_linear_98_129" x1="0" y1="390.637" x2="0" y2="-87.5154" gradientUnits="userSpaceOnUse">
<stop stop-color="#002ABD"/>
<stop offset="1" stop-color="#002ABD"/>
</linearGradient>
<clipPath id="clip0_98_129">
<rect width="1441" height="391" fill="white"/>
</clipPath>
<clipPath id="clip1_98_129">
<rect width="1440" height="484.637" fill="white" transform="translate(0 -94)"/>
</clipPath>
</defs>
</svg>
