<?xml version="1.0" standalone="no"?>
<svg xmlns:xlink="http://www.w3.org/1999/xlink" id="wave" style="transform:rotate(0deg); transition: 0.3s" viewBox="0 0 1440 490" version="1.1" xmlns="http://www.w3.org/2000/svg"><defs><linearGradient id="sw-gradient-0" x1="0" x2="0" y1="1" y2="0"><stop stop-color="rgba(0, 183.934, 255, 1)" offset="0%"/><stop stop-color="rgba(255, 255, 255, 1)" offset="100%"/></linearGradient></defs><path style="transform:translate(0, 0px); opacity:1" fill="url(#sw-gradient-0)" d="M0,392L48,367.5C96,343,192,294,288,277.7C384,261,480,278,576,261.3C672,245,768,196,864,212.3C960,229,1056,310,1152,294C1248,278,1344,163,1440,147C1536,131,1632,212,1728,204.2C1824,196,1920,98,2016,65.3C2112,33,2208,65,2304,138.8C2400,212,2496,327,2592,343C2688,359,2784,278,2880,204.2C2976,131,3072,65,3168,40.8C3264,16,3360,33,3456,106.2C3552,180,3648,310,3744,302.2C3840,294,3936,147,4032,130.7C4128,114,4224,229,4320,261.3C4416,294,4512,245,4608,220.5C4704,196,4800,196,4896,236.8C4992,278,5088,359,5184,351.2C5280,343,5376,245,5472,220.5C5568,196,5664,245,5760,236.8C5856,229,5952,163,6048,187.8C6144,212,6240,327,6336,318.5C6432,310,6528,180,6624,130.7C6720,82,6816,114,6864,130.7L6912,147L6912,490L6864,490C6816,490,6720,490,6624,490C6528,490,6432,490,6336,490C6240,490,6144,490,6048,490C5952,490,5856,490,5760,490C5664,490,5568,490,5472,490C5376,490,5280,490,5184,490C5088,490,4992,490,4896,490C4800,490,4704,490,4608,490C4512,490,4416,490,4320,490C4224,490,4128,490,4032,490C3936,490,3840,490,3744,490C3648,490,3552,490,3456,490C3360,490,3264,490,3168,490C3072,490,2976,490,2880,490C2784,490,2688,490,2592,490C2496,490,2400,490,2304,490C2208,490,2112,490,2016,490C1920,490,1824,490,1728,490C1632,490,1536,490,1440,490C1344,490,1248,490,1152,490C1056,490,960,490,864,490C768,490,672,490,576,490C480,490,384,490,288,490C192,490,96,490,48,490L0,490Z"/><defs><linearGradient id="sw-gradient-1" x1="0" x2="0" y1="1" y2="0"><stop stop-color="rgba(0, 99.232, 177.909, 1)" offset="0%"/><stop stop-color="rgba(0, 139.87, 250.767, 1)" offset="100%"/></linearGradient></defs><path style="transform:translate(0, 50px); opacity:0.9" fill="url(#sw-gradient-1)" d="M0,294L48,253.2C96,212,192,131,288,122.5C384,114,480,180,576,212.3C672,245,768,245,864,228.7C960,212,1056,180,1152,196C1248,212,1344,278,1440,318.5C1536,359,1632,376,1728,367.5C1824,359,1920,327,2016,326.7C2112,327,2208,359,2304,343C2400,327,2496,261,2592,261.3C2688,261,2784,327,2880,318.5C2976,310,3072,229,3168,187.8C3264,147,3360,147,3456,130.7C3552,114,3648,82,3744,106.2C3840,131,3936,212,4032,212.3C4128,212,4224,131,4320,106.2C4416,82,4512,114,4608,130.7C4704,147,4800,147,4896,163.3C4992,180,5088,212,5184,196C5280,180,5376,114,5472,73.5C5568,33,5664,16,5760,65.3C5856,114,5952,229,6048,302.2C6144,376,6240,408,6336,351.2C6432,294,6528,147,6624,106.2C6720,65,6816,131,6864,163.3L6912,196L6912,490L6864,490C6816,490,6720,490,6624,490C6528,490,6432,490,6336,490C6240,490,6144,490,6048,490C5952,490,5856,490,5760,490C5664,490,5568,490,5472,490C5376,490,5280,490,5184,490C5088,490,4992,490,4896,490C4800,490,4704,490,4608,490C4512,490,4416,490,4320,490C4224,490,4128,490,4032,490C3936,490,3840,490,3744,490C3648,490,3552,490,3456,490C3360,490,3264,490,3168,490C3072,490,2976,490,2880,490C2784,490,2688,490,2592,490C2496,490,2400,490,2304,490C2208,490,2112,490,2016,490C1920,490,1824,490,1728,490C1632,490,1536,490,1440,490C1344,490,1248,490,1152,490C1056,490,960,490,864,490C768,490,672,490,576,490C480,490,384,490,288,490C192,490,96,490,48,490L0,490Z"/><defs><linearGradient id="sw-gradient-2" x1="0" x2="0" y1="1" y2="0"><stop stop-color="rgba(0, 42, 189, 1)" offset="0%"/><stop stop-color="rgba(0, 42, 189, 1)" offset="100%"/></linearGradient></defs><path style="transform:translate(0, 100px); opacity:0.8" fill="url(#sw-gradient-2)" d="M0,343L48,285.8C96,229,192,114,288,130.7C384,147,480,294,576,359.3C672,425,768,408,864,392C960,376,1056,359,1152,294C1248,229,1344,114,1440,98C1536,82,1632,163,1728,220.5C1824,278,1920,310,2016,302.2C2112,294,2208,245,2304,261.3C2400,278,2496,359,2592,343C2688,327,2784,212,2880,147C2976,82,3072,65,3168,89.8C3264,114,3360,180,3456,187.8C3552,196,3648,147,3744,130.7C3840,114,3936,131,4032,147C4128,163,4224,180,4320,171.5C4416,163,4512,131,4608,163.3C4704,196,4800,294,4896,310.3C4992,327,5088,261,5184,212.3C5280,163,5376,131,5472,98C5568,65,5664,33,5760,16.3C5856,0,5952,0,6048,49C6144,98,6240,196,6336,196C6432,196,6528,98,6624,98C6720,98,6816,196,6864,245L6912,294L6912,490L6864,490C6816,490,6720,490,6624,490C6528,490,6432,490,6336,490C6240,490,6144,490,6048,490C5952,490,5856,490,5760,490C5664,490,5568,490,5472,490C5376,490,5280,490,5184,490C5088,490,4992,490,4896,490C4800,490,4704,490,4608,490C4512,490,4416,490,4320,490C4224,490,4128,490,4032,490C3936,490,3840,490,3744,490C3648,490,3552,490,3456,490C3360,490,3264,490,3168,490C3072,490,2976,490,2880,490C2784,490,2688,490,2592,490C2496,490,2400,490,2304,490C2208,490,2112,490,2016,490C1920,490,1824,490,1728,490C1632,490,1536,490,1440,490C1344,490,1248,490,1152,490C1056,490,960,490,864,490C768,490,672,490,576,490C480,490,384,490,288,490C192,490,96,490,48,490L0,490Z"/></svg>